<svg xmlns="http://www.w3.org/2000/svg" viewBox="0 0 252 72"><defs><style>.cls-1{fill:#3a3a3a;}.cls-2{fill:#c00000;}</style></defs><title>Quartech logo MASTER</title><g id="Logo"><g id="Quartech"><path class="cls-1" d="M84.17,42.11c0-4.5,1.67-8.29,5.87-8.29s5.87,3.79,5.87,8.29c0,4.27-1.67,8.28-5.87,8.28S84.17,46.38,84.17,42.11ZM94.76,60h7.8l-6.13-5.76c4.34-2,6.61-6.28,6.61-12.11,0-8.32-4.46-13.41-13-13.41S77,33.79,77,42.11s4.53,13.41,13,13.41h.37Z"/><path class="cls-1" d="M126.26,55.07h-6.1V51.51h-.07c-1.34,2.78-4,4-7.06,4-5.27,0-7.39-3.72-7.39-7.73V35.72h6.69v9.36c0,3.64,1.26,4.87,3.08,4.87,2.75,0,4.16-1.9,4.16-6.06V35.72h6.69Z"/><path class="cls-1" d="M135.33,48.94c0-1.85,1.79-2.56,4-2.56,1,0,2,.07,2.82.11a4.36,4.36,0,0,1-4.12,4.57C136.52,51.06,135.33,50.28,135.33,48.94Zm13.48,6.13a24.23,24.23,0,0,1-.37-4.57V43.3c0-5.91-4.27-8-9.21-8a19.87,19.87,0,0,0-7.72,1.38l.11,4.53a12.55,12.55,0,0,1,6.16-1.45c2.42,0,4.39.71,4.42,3.34a20.57,20.57,0,0,0-3.12-.26c-3.56,0-10,.71-10,6.62,0,4.19,3.42,6.09,7.24,6.09A6.64,6.64,0,0,0,142.46,52h.08c0,1,.11,2,.14,3Z"/><path class="cls-1" d="M165.47,41.07a7.86,7.86,0,0,0-2.27-.22c-3.12,0-4.87,2.26-4.87,6v8.17h-6.68V35.72h6.09v3.57h.07c1.16-2.46,2.83-4,5.73-4a14.27,14.27,0,0,1,2.26.23Z"/><path class="cls-1" d="M167.71,35.72h3.93V31.37l6.58-2v6.39h4.68V40.4h-4.68v7.13c0,2.34.56,3.53,2.67,3.53a13.06,13.06,0,0,0,2.05-.26l.22,4.35a33.64,33.64,0,0,1-4.2.37c-6,0-7.43-2.64-7.43-7.24V40.4h-3.82Z"/><path class="cls-1" d="M191.66,43.56c.15-2.23,1.3-4.05,3.72-4.05,2.67,0,3.71,1.82,3.71,4.05Zm13.45,3.79V46.12c0-5.76-2.6-10.85-9.77-10.85-6,0-10.36,3.72-10.36,10.11s4.87,10.14,11.25,10.14a19.31,19.31,0,0,0,7.1-1.23V49.57a12.52,12.52,0,0,1-5.91,1.49c-3.27,0-5.31-1-5.68-3.71Z"/><path class="cls-1" d="M223,41.25a7.34,7.34,0,0,0-4-1.07,5,5,0,0,0-5.12,5.35,5.21,5.21,0,0,0,5.5,5.08,9.24,9.24,0,0,0,4.16-.92l.14,5a17.92,17.92,0,0,1-5.46.86c-6.39,0-11.25-3.72-11.25-10.11s4.86-10.14,11.25-10.14a12.1,12.1,0,0,1,5.32,1.08Z"/><path class="cls-1" d="M227.17,27.21h6.69V38.58h.07a7.64,7.64,0,0,1,6.47-3.31c5.27,0,7.39,3.72,7.39,7.73V55.07H241.1V45.71c0-3.64-1.26-4.86-3.08-4.86-2.75,0-4.16,1.89-4.16,6v8.17h-6.69Z"/></g><g id="Logomark"><polygon class="cls-2" points="22.48 36.4 37.29 46 46.02 28.66 61.79 28.66 61.79 67.97 22.48 67.97 22.48 36.4"/><path class="cls-1" d="M4,27.71A23.11,23.11,0,1,0,27.07,4.6,23.13,23.13,0,0,0,4,27.71Zm8.41,0a14.7,14.7,0,1,1,14.7,14.7A14.72,14.72,0,0,1,12.37,27.71Z"/><polyline class="cls-2" points="22.41 28.81 44.3 56.71 22.48 67.97"/><polygon class="cls-1" points="22.41 28.81 44.3 56.71 55.23 56.7 33.32 28.78 22.41 28.81"/></g></g></svg>